<?xml version="1.0" standalone="no"?>
<!DOCTYPE svg PUBLIC "-//W3C//DTD SVG 20010904//EN"
 "http://www.w3.org/TR/2001/REC-SVG-20010904/DTD/svg10.dtd">
<svg version="1.0" xmlns="http://www.w3.org/2000/svg"
 width="200.000000pt" height="200.000000pt" viewBox="0 0 200.000000 200.000000"
 preserveAspectRatio="xMidYMid meet">
<metadata>
Created by potrace 1.11, written by Peter Selinger 2001-2013
</metadata>
<g transform="translate(0.000000,200.000000) scale(0.100000,-0.100000)"
fill="#000000" stroke="none">
<path d="M0 1000 l0 -1000 1000 0 1000 0 0 1000 0 1000 -1000 0 -1000 0 0
-1000z m1400 140 l0 -260 -120 0 -120 0 0 140 0 140 -140 0 -140 0 0 120 0
120 260 0 260 0 0 -260z m-560 -140 l0 -120 -120 0 -120 0 0 120 0 120 120 0
120 0 0 -120z m280 0 l0 -120 -120 0 -120 0 0 120 0 120 120 0 120 0 0 -120z
m0 -280 l0 -120 -120 0 -120 0 0 120 0 120 120 0 120 0 0 -120z"/>
</g>
</svg>
