<?xml version="1.0" standalone="no"?>
<!DOCTYPE svg PUBLIC "-//W3C//DTD SVG 20010904//EN"
 "http://www.w3.org/TR/2001/REC-SVG-20010904/DTD/svg10.dtd">
<svg version="1.0" xmlns="http://www.w3.org/2000/svg"
 width="512.000000pt" height="512.000000pt" viewBox="0 0 512.000000 512.000000"
 preserveAspectRatio="xMidYMid meet">
<metadata>
Created by potrace 1.11, written by Peter Selinger 2001-2013
</metadata>
<g transform="translate(0.000000,512.000000) scale(0.100000,-0.100000)"
fill="#000000" stroke="none">
<path d="M480 5095 c-175 -38 -332 -159 -409 -316 -77 -155 -72 8 -69 -2267
l3 -2037 23 -65 c67 -188 208 -329 389 -389 l62 -21 2079 0 c2297 0 2116 -5
2247 63 79 42 201 164 243 244 18 34 41 96 52 139 20 76 20 118 20 2098 0
2235 4 2091 -66 2231 -67 137 -199 251 -354 307 l-65 23 -2045 2 c-1723 1
-2055 -1 -2110 -12z m1879 -1325 c537 -310 698 -407 687 -415 -34 -25 -1390
-810 -1395 -808 -3 2 -324 186 -712 410 -400 231 -702 411 -695 415 184 114
1386 806 1397 805 9 -1 332 -184 718 -407z m2238 0 c3 0 28 14 55 30 26 17 51
30 54 30 2 0 3 -44 2 -97 l-3 -97 -57 -33 -58 -34 0 -225 c0 -259 -1 -257 82
-211 l48 27 0 -99 0 -99 -42 -37 c-24 -20 -74 -52 -112 -71 -115 -57 -181 -42
-206 47 -6 19 -10 145 -10 282 l0 248 -43 -26 c-24 -14 -47 -25 -50 -25 -4 0
-7 42 -7 94 l0 95 51 28 50 28 -2 109 -3 109 120 69 119 68 3 -105 c1 -58 5
-105 9 -105z m-367 -223 c0 -1 -43 -119 -96 -262 -52 -143 -93 -268 -90 -277
2 -10 48 -85 101 -167 53 -83 94 -154 91 -160 -6 -9 -230 -141 -239 -141 -3 0
-30 41 -61 90 -32 50 -59 90 -61 90 -1 0 -26 -67 -55 -150 -29 -82 -57 -156
-64 -164 -12 -16 -238 -148 -243 -142 -2 2 41 126 97 276 55 149 100 278 100
286 0 7 -43 80 -95 160 -52 81 -95 150 -95 154 0 4 39 30 88 58 48 27 103 59
123 71 l37 22 47 -81 c26 -44 50 -82 55 -85 4 -2 32 62 61 142 l54 147 115 68
c103 61 130 74 130 65z m-876 -571 c76 -32 116 -135 116 -296 l-1 -95 -157
-89 c-232 -132 -302 -178 -302 -199 0 -26 45 -67 75 -67 61 0 168 81 225 171
l32 49 54 -43 c36 -28 52 -47 49 -57 -17 -43 -77 -129 -131 -184 -71 -73 -124
-111 -225 -162 -148 -74 -274 -37 -321 93 -8 25 -13 85 -13 173 0 109 5 150
23 213 42 146 133 294 231 376 27 23 52 41 55 41 4 0 23 11 44 25 49 32 138
64 180 65 18 0 48 -6 66 -14z m-716 -633 l-3 -597 -118 -68 c-66 -38 -125 -67
-132 -65 -6 3 -88 114 -181 247 l-169 242 -3 -354 -2 -353 -73 -41 c-39 -23
-98 -56 -129 -74 l-58 -32 0 599 0 598 127 73 c95 55 128 70 134 60 5 -7 84
-122 176 -254 l168 -241 5 358 5 359 120 70 c66 38 123 70 128 70 4 0 6 -269
5 -597z m2142 220 l-1 -88 -52 -30 c-28 -16 -62 -45 -74 -64 -22 -32 -23 -43
-23 -227 l0 -192 -80 -46 c-43 -25 -82 -46 -85 -46 -3 0 -5 133 -5 295 l0 295
78 45 77 45 5 -32 5 -33 19 42 c21 46 56 84 101 107 17 9 31 16 33 16 1 0 2
-39 2 -87z m-433 -245 c34 -27 53 -90 52 -173 l0 -80 -154 -88 c-85 -49 -155
-95 -155 -102 0 -21 29 -45 54 -45 35 0 111 56 144 105 l28 43 38 -32 38 -31
-42 -62 c-49 -74 -99 -119 -179 -162 -78 -41 -136 -49 -178 -22 -53 33 -67 64
-71 160 -9 184 72 354 214 452 83 57 169 72 211 37z m-549 -238 c4 0 21 9 37
20 17 11 33 20 38 20 4 0 7 -29 7 -64 l0 -65 -42 -23 -43 -23 -3 -149 c-1 -87
2 -154 7 -159 6 -6 22 -2 45 11 l36 21 0 -69 c0 -66 -1 -70 -32 -93 -53 -40
-115 -67 -152 -67 -58 0 -66 28 -66 230 0 93 -2 170 -5 170 -4 0 -19 -7 -35
-15 l-30 -16 0 66 c0 64 1 66 35 86 35 21 35 21 35 94 l0 73 78 45 77 45 3
-69 c2 -38 6 -69 10 -69z m-272 -206 c-3 -26 -6 -66 -6 -89 0 -39 -2 -43 -40
-60 -47 -21 -97 -73 -106 -112 -4 -14 -4 -104 -1 -199 l6 -173 -69 -41 c-38
-22 -76 -43 -84 -46 -14 -5 -16 25 -16 289 l0 295 72 42 c54 31 73 38 79 28 5
-7 9 -17 9 -22 0 -4 15 14 33 40 32 49 88 94 115 94 12 0 13 -9 8 -46z m-467
-265 c52 -18 59 -44 66 -264 4 -110 12 -208 16 -217 10 -18 -6 -31 -109 -89
-43 -23 -44 -23 -58 -4 -8 10 -14 13 -14 7 0 -17 -67 -88 -106 -112 -77 -48
-153 -41 -174 15 -43 113 51 281 214 380 58 35 66 44 66 71 0 31 -15 54 -36
54 -22 0 -74 -57 -74 -82 0 -19 -16 -33 -81 -71 -45 -26 -84 -46 -86 -43 -13
12 23 113 60 167 55 83 159 163 247 190 35 10 33 10 69 -2z m-509 -179 l0 -70
40 20 40 20 0 -64 0 -65 -40 -23 -40 -23 0 -152 c0 -168 0 -169 60 -138 l30
16 0 -70 0 -69 -54 -36 c-96 -64 -142 -72 -175 -30 -19 25 -21 40 -21 206 l0
179 -30 -16 c-16 -8 -31 -15 -35 -15 -3 0 -5 28 -5 63 0 58 2 63 30 79 28 16
29 20 32 94 l3 78 70 42 c39 23 76 43 83 43 8 1 12 -19 12 -69z m-336 -120
c32 -12 57 -50 66 -101 l7 -40 -76 -44 c-42 -25 -81 -45 -88 -45 -6 0 -13 10
-15 23 -2 16 -11 23 -33 25 -58 6 -145 -78 -145 -140 0 -41 28 -48 135 -32
138 20 192 -1 215 -86 12 -44 2 -122 -23 -182 -21 -50 -86 -131 -141 -176
-113 -93 -260 -138 -322 -97 -29 19 -54 71 -54 114 0 27 8 34 77 73 43 24 81
45 85 46 5 2 8 -8 8 -21 0 -29 24 -57 47 -57 30 0 114 54 133 85 24 38 26 97
5 115 -12 10 -32 10 -99 0 -111 -17 -171 -10 -205 24 -24 24 -26 33 -26 109 0
71 4 90 30 141 66 132 253 271 367 275 15 1 38 -3 52 -9z"/>
<path d="M3135 2723 c-16 -8 -38 -23 -49 -32 -24 -21 -63 -99 -75 -150 l-9
-40 32 15 c17 9 68 37 114 62 l82 46 0 41 c0 28 -6 47 -18 58 -23 21 -38 21
-77 0z"/>
<path d="M4163 2150 c-35 -21 -76 -90 -71 -120 3 -17 11 -14 76 23 60 34 72
45 72 67 0 27 -16 50 -34 50 -6 0 -25 -9 -43 -20z"/>
<path d="M2925 1241 c-69 -43 -108 -120 -80 -158 12 -16 16 -16 41 -3 45 25
76 80 72 134 l-3 46 -30 -19z"/>
</g>
</svg>
