{
    "asset" : {
        "generator" : "Khronos glTF Blender I/O v1.7.33",
        "version" : "2.0"
    },
    "scene" : 0,
    "scenes" : [
        {
            "name" : "Scene",
            "nodes" : [
                6
            ]
        }
    ],
    "nodes" : [
        {
            "mesh" : 0,
            "name" : "group_0",
            "scale" : [
                1.1811023950576782,
                1.1811023950576782,
                1.1811023950576782
            ],
            "translation" : [
                -0.6539459228515625,
                -0.20772790908813477,
                -0.6787939071655273
            ]
        },
        {
            "mesh" : 1,
            "name" : "group_2",
            "scale" : [
                1.1811023950576782,
                1.1811023950576782,
                1.1811023950576782
            ],
            "translation" : [
                -0.6539459228515625,
                -0.20772790908813477,
                -0.6787939071655273
            ]
        },
        {
            "mesh" : 2,
            "name" : "group_2.001",
            "scale" : [
                1.1811023950576782,
                1.1811023950576782,
                1.1811023950576782
            ],
            "translation" : [
                -0.6539459228515625,
                -0.20772790908813477,
                -0.6787939071655273
            ]
        },
        {
            "mesh" : 3,
            "name" : "group_4",
            "scale" : [
                0.846666693687439,
                4.233333110809326,
                0.846666693687439
            ]
        },
        {
            "children" : [
                3
            ],
            "mesh" : 4,
            "name" : "group_3",
            "scale" : [
                1.1811023950576782,
                0.23622050881385803,
                1.1811023950576782
            ],
            "translation" : [
                -0.6539459228515625,
                -0.20772790908813477,
                -0.6787939071655273
            ]
        },
        {
            "mesh" : 5,
            "name" : "IMPRESSION",
            "scale" : [
                1.1811023950576782,
                0.23622050881385803,
                1.1811023950576782
            ],
            "translation" : [
                -0.6539459228515625,
                -0.20772838592529297,
                -0.6787939071655273
            ]
        },
        {
            "children" : [
                0,
                1,
                2,
                4,
                5
            ],
            "name" : "CadrePP",
            "rotation" : [
                0.5,
                0.5,
                -0.5,
                0.4999999701976776
            ],
            "scale" : [
                0.02539999969303608,
                0.02539999969303608,
                0.02539999969303608
            ],
            "translation" : [
                0,
                -2.2202730178833008e-06,
                -1.3113021850585938e-05
            ]
        }
    ],
    "materials" : [
        {
            "doubleSided" : true,
            "name" : "Mati\u00e8re",
            "pbrMetallicRoughness" : {
                "baseColorFactor" : [
                    0.7254902124404907,
                    0.5921568870544434,
                    0.07058820128440857,
                    1
                ],
                "metallicFactor" : 0,
                "roughnessFactor" : 0.5
            }
        },
        {
            "doubleSided" : true,
            "name" : "Color_D06",
            "pbrMetallicRoughness" : {
                "baseColorFactor" : [
                    0.800000011920929,
                    0.6000000238418579,
                    0,
                    1
                ],
                "metallicFactor" : 0,
                "roughnessFactor" : 0.5
            }
        },
        {
            "doubleSided" : true,
            "name" : "Color_I03",
            "pbrMetallicRoughness" : {
                "baseColorFactor" : [
                    0.3960784077644348,
                    0.3960784077644348,
                    1,
                    1
                ],
                "metallicFactor" : 0,
                "roughnessFactor" : 0.5
            }
        },
        {
            "doubleSided" : true,
            "name" : "Color_A05",
            "pbrMetallicRoughness" : {
                "baseColorFactor" : [
                    1,
                    0,
                    0,
                    1
                ],
                "metallicFactor" : 0,
                "roughnessFactor" : 0.5
            }
        },
        {
            "doubleSided" : true,
            "name" : "Diamond_Box",
            "pbrMetallicRoughness" : {
                "baseColorTexture" : {
                    "index" : 0
                },
                "metallicFactor" : 0,
                "roughnessFactor" : 0.5
            }
        }
    ],
    "meshes" : [
        {
            "name" : "ID4",
            "primitives" : [
                {
                    "attributes" : {
                        "POSITION" : 0,
                        "NORMAL" : 1
                    },
                    "indices" : 2,
                    "material" : 0
                }
            ]
        },
        {
            "name" : "ID27",
            "primitives" : [
                {
                    "attributes" : {
                        "POSITION" : 3,
                        "NORMAL" : 4
                    },
                    "indices" : 5,
                    "material" : 1
                }
            ]
        },
        {
            "name" : "ID35",
            "primitives" : [
                {
                    "attributes" : {
                        "POSITION" : 6,
                        "NORMAL" : 7
                    },
                    "indices" : 8,
                    "material" : 1
                }
            ]
        },
        {
            "name" : "ID43",
            "primitives" : [
                {
                    "attributes" : {
                        "POSITION" : 9,
                        "NORMAL" : 10
                    },
                    "indices" : 11,
                    "material" : 2
                },
                {
                    "attributes" : {
                        "POSITION" : 12,
                        "NORMAL" : 13
                    },
                    "indices" : 14,
                    "material" : 3
                }
            ]
        },
        {
            "name" : "ID53",
            "primitives" : [
                {
                    "attributes" : {
                        "POSITION" : 15,
                        "NORMAL" : 16
                    },
                    "indices" : 17,
                    "material" : 3
                }
            ]
        },
        {
            "name" : "Impression",
            "primitives" : [
                {
                    "attributes" : {
                        "POSITION" : 18,
                        "NORMAL" : 19,
                        "TEXCOORD_0" : 20
                    },
                    "indices" : 2,
                    "material" : 4
                }
            ]
        }
    ],
    "textures" : [
        {
            "sampler" : 0,
            "source" : 0
        }
    ],
    "images" : [
        {
            "bufferView" : 21,
            "mimeType" : "image/jpeg",
            "name" : "Diamond_Box"
        }
    ],
    "accessors" : [
        {
            "bufferView" : 0,
            "componentType" : 5126,
            "count" : 56,
            "max" : [
                7.0508856773376465,
                -4.236568450927734,
                0.2616095542907715
            ],
            "min" : [
                -4.760138034820557,
                -4.4334187507629395,
                -15.48642349243164
            ],
            "type" : "VEC3"
        },
        {
            "bufferView" : 1,
            "componentType" : 5126,
            "count" : 56,
            "type" : "VEC3"
        },
        {
            "bufferView" : 2,
            "componentType" : 5123,
            "count" : 72,
            "type" : "SCALAR"
        },
        {
            "bufferView" : 3,
            "componentType" : 5126,
            "count" : 122,
            "max" : [
                7.980663299560547,
                -3.666752338409424,
                1.2616095542907715
            ],
            "min" : [
                -5.830360412597656,
                -4.533419132232666,
                -16.486421585083008
            ],
            "type" : "VEC3"
        },
        {
            "bufferView" : 4,
            "componentType" : 5126,
            "count" : 122,
            "type" : "VEC3"
        },
        {
            "bufferView" : 5,
            "componentType" : 5123,
            "count" : 144,
            "type" : "SCALAR"
        },
        {
            "bufferView" : 6,
            "componentType" : 5126,
            "count" : 127,
            "max" : [
                6.980663299560547,
                -3.666752338409424,
                0.2616095542907715
            ],
            "min" : [
                -4.830360412597656,
                -4.533419132232666,
                -15.48642349243164
            ],
            "type" : "VEC3"
        },
        {
            "bufferView" : 7,
            "componentType" : 5126,
            "count" : 127,
            "type" : "VEC3"
        },
        {
            "bufferView" : 8,
            "componentType" : 5123,
            "count" : 192,
            "type" : "SCALAR"
        },
        {
            "bufferView" : 9,
            "componentType" : 5126,
            "count" : 24,
            "max" : [
                6.276374816894531,
                -4.481159210205078,
                -1.659516453742981
            ],
            "min" : [
                -3.736645460128784,
                -4.6457695960998535,
                -16.322546005249023
            ],
            "type" : "VEC3"
        },
        {
            "bufferView" : 10,
            "componentType" : 5126,
            "count" : 24,
            "type" : "VEC3"
        },
        {
            "bufferView" : 11,
            "componentType" : 5123,
            "count" : 24,
            "type" : "SCALAR"
        },
        {
            "bufferView" : 12,
            "componentType" : 5126,
            "count" : 24,
            "max" : [
                6.276374816894531,
                -4.481159210205078,
                -1.659516453742981
            ],
            "min" : [
                -3.736645460128784,
                -4.6457695960998535,
                -16.322546005249023
            ],
            "type" : "VEC3"
        },
        {
            "bufferView" : 13,
            "componentType" : 5126,
            "count" : 24,
            "type" : "VEC3"
        },
        {
            "bufferView" : 14,
            "componentType" : 5123,
            "count" : 24,
            "type" : "SCALAR"
        },
        {
            "bufferView" : 15,
            "componentType" : 5126,
            "count" : 101,
            "max" : [
                6.980663776397705,
                -18.97024154663086,
                0.2616095542907715
            ],
            "min" : [
                -4.830359935760498,
                -19.667091369628906,
                -15.48642349243164
            ],
            "type" : "VEC3"
        },
        {
            "bufferView" : 16,
            "componentType" : 5126,
            "count" : 101,
            "type" : "VEC3"
        },
        {
            "bufferView" : 17,
            "componentType" : 5123,
            "count" : 144,
            "type" : "SCALAR"
        },
        {
            "bufferView" : 18,
            "componentType" : 5126,
            "count" : 56,
            "max" : [
                6.980663776397705,
                -20.636905670166016,
                0.2616095542907715
            ],
            "min" : [
                -4.830359935760498,
                -20.833755493164062,
                -15.48642349243164
            ],
            "type" : "VEC3"
        },
        {
            "bufferView" : 19,
            "componentType" : 5126,
            "count" : 56,
            "type" : "VEC3"
        },
        {
            "bufferView" : 20,
            "componentType" : 5126,
            "count" : 56,
            "type" : "VEC2"
        }
    ],
    "bufferViews" : [
        {
            "buffer" : 0,
            "byteLength" : 672,
            "byteOffset" : 0
        },
        {
            "buffer" : 0,
            "byteLength" : 672,
            "byteOffset" : 672
        },
        {
            "buffer" : 0,
            "byteLength" : 144,
            "byteOffset" : 1344
        },
        {
            "buffer" : 0,
            "byteLength" : 1464,
            "byteOffset" : 1488
        },
        {
            "buffer" : 0,
            "byteLength" : 1464,
            "byteOffset" : 2952
        },
        {
            "buffer" : 0,
            "byteLength" : 288,
            "byteOffset" : 4416
        },
        {
            "buffer" : 0,
            "byteLength" : 1524,
            "byteOffset" : 4704
        },
        {
            "buffer" : 0,
            "byteLength" : 1524,
            "byteOffset" : 6228
        },
        {
            "buffer" : 0,
            "byteLength" : 384,
            "byteOffset" : 7752
        },
        {
            "buffer" : 0,
            "byteLength" : 288,
            "byteOffset" : 8136
        },
        {
            "buffer" : 0,
            "byteLength" : 288,
            "byteOffset" : 8424
        },
        {
            "buffer" : 0,
            "byteLength" : 48,
            "byteOffset" : 8712
        },
        {
            "buffer" : 0,
            "byteLength" : 288,
            "byteOffset" : 8760
        },
        {
            "buffer" : 0,
            "byteLength" : 288,
            "byteOffset" : 9048
        },
        {
            "buffer" : 0,
            "byteLength" : 48,
            "byteOffset" : 9336
        },
        {
            "buffer" : 0,
            "byteLength" : 1212,
            "byteOffset" : 9384
        },
        {
            "buffer" : 0,
            "byteLength" : 1212,
            "byteOffset" : 10596
        },
        {
            "buffer" : 0,
            "byteLength" : 288,
            "byteOffset" : 11808
        },
        {
            "buffer" : 0,
            "byteLength" : 672,
            "byteOffset" : 12096
        },
        {
            "buffer" : 0,
            "byteLength" : 672,
            "byteOffset" : 12768
        },
        {
            "buffer" : 0,
            "byteLength" : 448,
            "byteOffset" : 13440
        },
        {
            "buffer" : 0,
            "byteLength" : 35096,
            "byteOffset" : 13888
        }
    ],
    "samplers" : [
        {
            "magFilter" : 9729,
            "minFilter" : 9987
        }
    ],
    "buffers" : [
        {
            "byteLength" : 48984,
            "uri" : "data:application/octet-stream;base64,"
        }
    ]
}
