{
	"asset":{
		"generator":"Khronos glTF Blender I/O v3.6.27",
		"version":"2.0"
	},
	"scene":0,
	"scenes":[
		{
			"name":"Scene",
			"nodes":[
				6,
				7
			]
		}
	],
	"nodes":[
		{
			"mesh":0,
			"name":"Cylinder003"
		},
		{
			"mesh":1,
			"name":"Cylinder003_1"
		},
		{
			"children":[
				0,
				1
			],
			"name":"Anse",
			"rotation":[
				0,
				-0.20449602603912354,
				0,
				0.9788674116134644
			]
		},
		{
			"mesh":2,
			"name":"Exterior",
			"rotation":[
				0,
				-0.20449602603912354,
				0,
				0.9788674116134644
			]
		},
		{
			"mesh":3,
			"name":"Impression",
			"rotation":[
				0,
				-0.20449602603912354,
				0,
				0.9788674116134644
			]
		},
		{
			"mesh":4,
			"name":"Interior",
			"rotation":[
				0,
				-0.20449602603912354,
				0,
				0.9788674116134644
			]
		},
		{
			"children":[
				2,
				3,
				4,
				5
			],
			"name":"newMug4Meshes.glb"
		},
		{
			"name":"AmbientLight",
			"translation":[
				-1.3200000524520874,
				0,
				-1.5
			]
		}
	],
	"materials":[
		{
			"name":"Material_1",
			"pbrMetallicRoughness":{}
		},
		{
			"doubleSided":true,
			"name":"color-material",
			"pbrMetallicRoughness":{
				"baseColorFactor":[
					0.672443151473999,
					0.1946178376674652,
					0.1946178376674652,
					1
				]
			}
		},
		{
			"doubleSided":true,
			"name":"white-material",
			"pbrMetallicRoughness":{
				"metallicFactor":0,
				"roughnessFactor":0.25999999046325684
			}
		},
		{
			"emissiveFactor":[
				0.0015176349552348256,
				0.0015176349552348256,
				0.0015176349552348256
			],
			"name":"map-material",
			"pbrMetallicRoughness":{
				"baseColorFactor":[
					1,
					0.9559733271598816,
					0.9559733271598816,
					1
				],
				"baseColorTexture":{
					"index":0
				},
				"metallicFactor":0.3199999928474426
			}
		}
	],
	"meshes":[
		{
			"name":"Mesh_1",
			"primitives":[
				{
					"attributes":{
						"POSITION":0,
						"NORMAL":1,
						"TEXCOORD_0":2
					},
					"indices":3,
					"material":0
				}
			]
		},
		{
			"name":"Mesh_2",
			"primitives":[
				{
					"attributes":{
						"POSITION":4,
						"NORMAL":5,
						"TEXCOORD_0":6
					},
					"indices":7,
					"material":1
				}
			]
		},
		{
			"name":"Mesh_0",
			"primitives":[
				{
					"attributes":{
						"POSITION":8,
						"NORMAL":9,
						"TEXCOORD_0":10
					},
					"indices":11,
					"material":2
				}
			]
		},
		{
			"name":"Mesh_4",
			"primitives":[
				{
					"attributes":{
						"POSITION":12,
						"NORMAL":13,
						"TEXCOORD_0":14
					},
					"indices":15,
					"material":3
				}
			]
		},
		{
			"name":"Mesh_3",
			"primitives":[
				{
					"attributes":{
						"POSITION":16,
						"NORMAL":17,
						"TEXCOORD_0":18
					},
					"indices":19,
					"material":1
				}
			]
		}
	],
	"textures":[
		{
			"sampler":0,
			"source":0
		}
	],
	"images":[
		{
			"bufferView":16,
			"mimeType":"image/png",
			"name":"Image_0"
		}
	],
	"accessors":[
		{
			"bufferView":0,
			"componentType":5126,
			"count":27,
			"max":[
				0.0038133489433676004,
				0.07740914821624756,
				-0.041988495737314224
			],
			"min":[
				-0.003934765700250864,
				0.01744857430458069,
				-0.06986592710018158
			],
			"type":"VEC3"
		},
		{
			"bufferView":1,
			"componentType":5126,
			"count":27,
			"type":"VEC3"
		},
		{
			"bufferView":2,
			"componentType":5126,
			"count":27,
			"type":"VEC2"
		},
		{
			"bufferView":3,
			"componentType":5123,
			"count":72,
			"type":"SCALAR"
		},
		{
			"bufferView":4,
			"componentType":5126,
			"count":300,
			"max":[
				0.007328297942876816,
				0.0851680338382721,
				-0.041253749281167984
			],
			"min":[
				-0.007365034427493811,
				0.017642583698034286,
				-0.07914841920137405
			],
			"type":"VEC3"
		},
		{
			"bufferView":5,
			"componentType":5126,
			"count":300,
			"type":"VEC3"
		},
		{
			"bufferView":6,
			"componentType":5126,
			"count":300,
			"type":"VEC2"
		},
		{
			"bufferView":7,
			"componentType":5123,
			"count":1152,
			"type":"SCALAR"
		},
		{
			"bufferView":8,
			"componentType":5126,
			"count":1652,
			"max":[
				0.040225476026535034,
				0.09326765686273575,
				0.0400422029197216
			],
			"min":[
				-0.040122270584106445,
				-0.000325058470480144,
				-0.043678127229213715
			],
			"type":"VEC3"
		},
		{
			"bufferView":9,
			"componentType":5126,
			"count":1652,
			"type":"VEC3"
		},
		{
			"bufferView":10,
			"componentType":5126,
			"count":1652,
			"type":"VEC2"
		},
		{
			"bufferView":11,
			"componentType":5123,
			"count":6351,
			"type":"SCALAR"
		},
		{
			"bufferView":12,
			"componentType":5126,
			"count":3417,
			"max":[
				0.040225476026535034,
				0.08952923119068146,
				0.0400422029197216
			],
			"min":[
				-0.040122270584106445,
				0.004980739206075668,
				-0.03770579770207405
			],
			"type":"VEC3"
		},
		{
			"bufferView":13,
			"componentType":5126,
			"count":3417,
			"type":"VEC3"
		},
		{
			"bufferView":14,
			"componentType":5126,
			"count":3417,
			"type":"VEC2"
		},
		{
			"bufferView":15,
			"componentType":5123,
			"count":17475,
			"type":"SCALAR"
		},
		{
			"bufferView":17,
			"componentType":5126,
			"count":1946,
			"max":[
				0.04013695567846298,
				0.09482502937316895,
				0.04013695567846298
			],
			"min":[
				-0.04013695567846298,
				0.003927875310182571,
				-0.04013695567846298
			],
			"type":"VEC3"
		},
		{
			"bufferView":18,
			"componentType":5126,
			"count":1946,
			"type":"VEC3"
		},
		{
			"bufferView":19,
			"componentType":5126,
			"count":1946,
			"type":"VEC2"
		},
		{
			"bufferView":20,
			"componentType":5123,
			"count":8262,
			"type":"SCALAR"
		}
	],
	"bufferViews":[
		{
			"buffer":0,
			"byteLength":324,
			"byteOffset":0,
			"target":34962
		},
		{
			"buffer":0,
			"byteLength":324,
			"byteOffset":324,
			"target":34962
		},
		{
			"buffer":0,
			"byteLength":216,
			"byteOffset":648,
			"target":34962
		},
		{
			"buffer":0,
			"byteLength":144,
			"byteOffset":864,
			"target":34963
		},
		{
			"buffer":0,
			"byteLength":3600,
			"byteOffset":1008,
			"target":34962
		},
		{
			"buffer":0,
			"byteLength":3600,
			"byteOffset":4608,
			"target":34962
		},
		{
			"buffer":0,
			"byteLength":2400,
			"byteOffset":8208,
			"target":34962
		},
		{
			"buffer":0,
			"byteLength":2304,
			"byteOffset":10608,
			"target":34963
		},
		{
			"buffer":0,
			"byteLength":19824,
			"byteOffset":12912,
			"target":34962
		},
		{
			"buffer":0,
			"byteLength":19824,
			"byteOffset":32736,
			"target":34962
		},
		{
			"buffer":0,
			"byteLength":13216,
			"byteOffset":52560,
			"target":34962
		},
		{
			"buffer":0,
			"byteLength":12702,
			"byteOffset":65776,
			"target":34963
		},
		{
			"buffer":0,
			"byteLength":41004,
			"byteOffset":78480,
			"target":34962
		},
		{
			"buffer":0,
			"byteLength":41004,
			"byteOffset":119484,
			"target":34962
		},
		{
			"buffer":0,
			"byteLength":27336,
			"byteOffset":160488,
			"target":34962
		},
		{
			"buffer":0,
			"byteLength":34950,
			"byteOffset":187824,
			"target":34963
		},
		{
			"buffer":0,
			"byteLength":435140,
			"byteOffset":222776
		},
		{
			"buffer":0,
			"byteLength":23352,
			"byteOffset":657916,
			"target":34962
		},
		{
			"buffer":0,
			"byteLength":23352,
			"byteOffset":681268,
			"target":34962
		},
		{
			"buffer":0,
			"byteLength":15568,
			"byteOffset":704620,
			"target":34962
		},
		{
			"buffer":0,
			"byteLength":16524,
			"byteOffset":720188,
			"target":34963
		}
	],
	"samplers":[
		{
			"magFilter":9729,
			"minFilter":9987
		}
	],
	"buffers":[
		{
			"byteLength":736712,
			"uri":"data:application/octet-stream;base64,"
		}
	]
}
