<svg height="17" viewBox="0 0 18 17" width="18" xmlns="http://www.w3.org/2000/svg"><path d="m195.711029 1c-4.810968 0-8.711029 3.90006063-8.711029 8.71102924 0 3.85027496 2.500065 7.11691086 5.958344 8.27547776.435551.0696883.574928-.2003537.574928-.4355514 0-.2003537 0-.7491486 0-1.472164-2.412955.5226618-2.926906-1.1672779-2.926906-1.1672779-.400707-1.0104794-.966924-1.2805213-.966924-1.2805213-.792704-.5400838.060977-.5226618.060977-.5226618.871103.0609772 1.332788.8972361 1.332788.8972361.757859 1.3240764 2.03838.9320801 2.534909.7230154.078399-.5662169.304886-.9495022.548795-1.1672779-1.933849-.2177758-3.963518-.9669243-3.963518-4.28582642 0-.96692425.331019-1.74220585.897236-2.36068893-.087111-.21777573-.391997-1.12372277.08711-2.29971172 0 0 .731726-.23519779 2.395533.88852499.688171-.19164265 1.43732-.28746397 2.177757-.28746397.740438 0 1.489586.09582132 2.177758.28746397 1.663806-1.12372278 2.395533-.88852499 2.395533-.88852499.479106 1.17598895.17422 2.08193599.08711 2.29971172.566217.61848308.897236 1.39376468.897236 2.36068893 0 3.32761312-2.038381 4.05933962-3.98094 4.27711532.313597.2700419.601061.8014147.601061 1.6115404v2.3868221c0 .2351977.139376.5139507.583639.4355514 3.458278-1.1672779 5.949632-4.4252028 5.949632-8.27547776 0-2.3103086-.917766-4.52599297-2.551401-6.15962785-1.633635-1.63363487-3.849319-2.55140139-6.159628-2.55140139z" fill="#9ea0a6" transform="translate(-187 -1)"/></svg>