<?xml version="1.0" encoding="UTF-8"?>
<svg width="18px" height="18px" viewBox="0 0 18 18" version="1.1" xmlns="http://www.w3.org/2000/svg" xmlns:xlink="http://www.w3.org/1999/xlink">
    <!-- Generator: Sketch 49.3 (51167) - http://www.bohemiancoding.com/sketch -->
    <title>Shape</title>
    <desc>Created with Sketch.</desc>
    <defs></defs>
    <g id="Good-One" stroke="none" stroke-width="1" fill="none" fill-rule="evenodd">
        <g id="Footer_06" transform="translate(-1190.000000, -3946.000000)" fill="#9EA0A6" fill-rule="nonzero">
            <g id="Group-7" transform="translate(0.000000, 3204.000000)">
                <g id="Group-6" transform="translate(75.000000, 733.000000)">
                    <g id="dribbble" transform="translate(976.000000, 9.000000)">
                        <path d="M144.22,0 L151.78,0 C154.66,0 157,2.34 157,5.22 L157,12.78 C157,15.6629264 154.662926,18 151.78,18 L144.22,18 C141.34,18 139,15.66 139,12.78 L139,5.22 C139,2.33707361 141.337074,7.99360578e-16 144.22,0 Z M144.04,1.8 C142.250597,1.8 140.8,3.25059741 140.8,5.04 L140.8,12.96 C140.8,14.751 142.249,16.2 144.04,16.2 L151.96,16.2 C153.749403,16.2 155.2,14.7494026 155.2,12.96 L155.2,5.04 C155.2,3.249 153.751,1.8 151.96,1.8 L144.04,1.8 Z M152.725,3.15 C153.34632,3.15 153.85,3.65367966 153.85,4.275 C153.85,4.89632034 153.34632,5.4 152.725,5.4 C152.10368,5.4 151.6,4.89632034 151.6,4.275 C151.6,3.65367966 152.10368,3.15 152.725,3.15 Z M148,4.5 C150.485281,4.5 152.5,6.51471863 152.5,9 C152.5,11.4852814 150.485281,13.5 148,13.5 C145.514719,13.5 143.5,11.4852814 143.5,9 C143.5,6.51471863 145.514719,4.5 148,4.5 Z M148,6.3 C146.508831,6.3 145.3,7.50883118 145.3,9 C145.3,10.4911688 146.508831,11.7 148,11.7 C149.491169,11.7 150.7,10.4911688 150.7,9 C150.7,7.50883118 149.491169,6.3 148,6.3 Z" id="Shape"></path>
                    </g>
                </g>
            </g>
        </g>
    </g>
</svg>