<?xml version="1.0" encoding="UTF-8"?>
<svg width="20px" height="15px" viewBox="0 0 20 15" version="1.1" xmlns="http://www.w3.org/2000/svg" xmlns:xlink="http://www.w3.org/1999/xlink">
    <!-- Generator: Sketch 49.3 (51167) - http://www.bohemiancoding.com/sketch -->
    <title>Fill 1</title>
    <desc>Created with Sketch.</desc>
    <defs></defs>
    <g id="Good-One" stroke="none" stroke-width="1" fill="none" fill-rule="evenodd">
        <g id="Footer_06" transform="translate(-1091.000000, -3948.000000)" fill="#9EA0A6">
            <g id="Group-7" transform="translate(0.000000, 3204.000000)">
                <g id="Group-6" transform="translate(75.000000, 733.000000)">
                    <g id="dribbble" transform="translate(976.000000, 9.000000)">
                        <path d="M53.2813915,2 C51.0959361,2 49.3247358,3.69382235 49.3247358,5.78774534 C49.3247358,6.08310267 49.3596502,6.37374182 49.4275918,6.64928284 C46.1380851,6.48980876 43.2222572,4.98471314 41.2708228,2.68885254 C40.9301711,3.25031454 40.7357826,3.90142174 40.7357826,4.59593608 C40.7357826,5.91041772 41.4331278,7.07014343 42.4956593,7.74672874 C41.8464394,7.72974333 41.236852,7.55800201 40.7027554,7.27396829 C40.7027554,7.29001007 40.7027554,7.30605184 40.7027554,7.32303724 C40.7027554,9.157461 42.066306,10.6880347 43.8771389,11.0362355 C43.5449799,11.1221062 43.1958354,11.1692879 42.8344238,11.1692879 C42.5796427,11.1692879 42.331467,11.1447534 42.0898968,11.1032335 C42.5937972,12.603611 44.0554857,13.7038878 45.7870533,13.7331404 C44.4319955,14.7447157 42.7259059,15.3552466 40.8726095,15.3552466 C40.5527177,15.3552466 40.237544,15.3344867 39.9280322,15.3014595 C41.6794162,16.3753145 43.7591847,17 45.9937091,17 C53.2719552,17 57.2522018,11.2287368 57.2522018,6.22464771 C57.2522018,6.06328636 57.2484273,5.89720684 57.2408782,5.73490186 C58.0146578,5.20080523 58.6855813,4.53648717 59.2159034,3.7768621 C58.5062909,4.07505033 57.7438349,4.27887519 56.9436336,4.37135128 C57.7598767,3.90142174 58.3873931,3.16066935 58.6827504,2.27648465 C57.9184071,2.70961248 57.0710242,3.02478611 56.1707977,3.19369653 C55.4479743,2.45954957 54.4203573,2 53.2813915,2" id="Fill-1"></path>
                    </g>
                </g>
            </g>
        </g>
    </g>
</svg>